<svg width="30" height="30" viewBox="0 0 30 30" fill="none" xmlns="http://www.w3.org/2000/svg">
<g clip-path="url(#clip0_1_497)">
<path d="M14.9983 20.3981C11.7764 20.4395 8.93928 17.7866 8.88619 14.6847C8.73024 11.5701 11.3782 8.75159 14.6068 8.58917C18.3464 8.33758 21.4556 11.4299 21.1171 14.9936C20.8517 18.0096 18.217 20.3917 15.0249 20.3981H14.995H14.9983ZM14.9983 10.449C12.0418 10.4204 9.97457 13.5032 11.1758 16.0828C13.0174 20.0955 19.1893 18.828 19.1893 14.4459C19.1793 12.2739 17.3111 10.4459 15.0282 10.4459H14.9983V10.449Z" fill="white"/>
<path d="M14.9983 20.3981C11.7764 20.4395 8.93928 17.7866 8.88619 14.6847C8.73024 11.5701 11.3782 8.75159 14.6068 8.58917C18.3464 8.33758 21.4556 11.4299 21.1171 14.9936C20.8517 18.0096 18.217 20.3917 15.0249 20.3981H14.995H14.9983ZM14.9983 10.449C12.0418 10.4204 9.97457 13.5032 11.1758 16.0828C13.0174 20.0955 19.1893 18.828 19.1893 14.4459C19.1793 12.2739 17.3111 10.4459 15.0282 10.4459H14.9983V10.449Z" fill="white"/>
<path d="M24.9564 24.9363C24.1999 24.9491 23.7121 24.0478 24.1733 23.4618C26.2671 21.414 27.6541 18.7643 27.966 15.8886C28.5467 11.1975 26.1709 6.4204 22.0497 3.8981C10.7412 -2.97451 -2.56819 8.88855 3.43779 20.2898C4.04502 21.4236 4.84803 22.4682 5.80036 23.4013C5.98286 23.6083 6.05918 23.8886 6.01272 24.1529C5.92313 24.8949 4.83807 25.2134 4.32707 24.6306C2.58832 22.9236 1.33735 20.8758 0.647166 18.6401C-3.04933 6.78664 9.72249 -3.99043 21.4988 1.45225C26.6388 3.80575 30.0598 9.02549 30.0001 14.5255C29.9935 18.2994 28.4737 21.914 25.6964 24.6306C25.5139 24.8185 25.2517 24.9331 24.9863 24.9363H24.9564Z" fill="white"/>
<path d="M23.5395 30C23.191 30 22.8493 29.7962 22.6867 29.4936C20.4834 25.6975 15.2141 24.1274 11.1658 26.086C9.8684 26.6879 8.74021 27.5828 7.88079 28.7006C7.57552 29.0414 7.41624 29.5064 7.06451 29.8057C6.34446 30.3567 5.23617 29.6369 5.54808 28.7707C8.80657 22.7803 17.5833 21.5414 22.5573 26.3153C23.2806 26.9905 23.9144 27.7675 24.4188 28.6338C24.4918 28.7707 24.5283 28.9172 24.5283 29.0605C24.5449 29.5414 24.0936 30.0032 23.5693 30H23.5395Z" fill="white"/>
</g>
<defs>
<clipPath id="clip0_1_497">
<rect width="30" height="30" fill="white"/>
</clipPath>
</defs>
</svg>
