<svg width="47" height="42" viewBox="0 0 47 42" fill="none" xmlns="http://www.w3.org/2000/svg">
<g clip-path="url(#clip0_1_521)">
<path d="M17.5454 28.3902C17.3709 28.3902 17.2051 28.3902 17.0306 28.3902C10.7837 28.2267 6.8489 23.122 6.8489 14.9268C6.8489 6.73171 10.9059 1.74749 17.5628 1.74749C22.1782 1.74749 25.7815 3.91679 27.3083 9.34864H27.6573L27.5788 2.24677C25.197 1.033 21.6111 0 17.1441 0C6.48246 0 0 5.76757 0 15.0301C0 24.2927 6.71803 30.1033 17.0219 30.1463C17.1964 30.1463 17.3622 30.1377 17.5367 30.1377V28.3989L17.5454 28.3902Z" fill="white"/>
<path d="M34.9686 42V41.6126H35.4747C36.8532 41.6126 37.9699 40.5366 38.0136 39.1851V29.208H25.1708V39.1506C25.197 40.5108 26.3224 41.604 27.7097 41.604H28.207V41.9914H16.1843V41.604H16.6904C18.0776 41.604 19.2031 40.5108 19.2293 39.1506V17.4921C19.1944 16.1406 18.0776 15.0387 16.6904 15.0387H16.1931V14.6514H28.2157V15.0387H27.7097C26.3312 15.0387 25.2144 16.1492 25.1708 17.4921V27.5638H38.0136V17.4921C37.9612 16.1578 36.8444 15.0387 35.4747 15.0387H34.9774V14.6514H47V15.0387H46.494C45.1067 15.0387 43.9813 16.132 43.9551 17.4921V39.1506C43.9813 40.5108 45.1067 41.604 46.494 41.604H46.9913V41.9914H34.9686V42Z" fill="white"/>
</g>
<defs>
<clipPath id="clip0_1_521">
<rect width="47" height="42" fill="white"/>
</clipPath>
</defs>
</svg>
