<svg width="30" height="30" viewBox="0 0 30 30" fill="none" xmlns="http://www.w3.org/2000/svg">
<g clip-path="url(#clip0_1_512)">
<path d="M28.3443 0H1.65565C0.741009 0 0 0.741375 0 1.65563V28.344C0 29.2583 0.741009 29.9996 1.65565 29.9996H16.0239V18.3821H12.1145V13.8544H16.0239V10.5154C16.0239 6.6405 18.3906 4.53038 21.8474 4.53038C23.503 4.53038 24.9262 4.65375 25.3409 4.70888V8.7585L22.9435 8.75963C21.0636 8.75963 20.6999 9.65287 20.6999 10.9639V13.8548H25.1834L24.5996 18.3825H20.6999V30H28.3447C29.259 30 30.0004 29.2586 30.0004 28.3444V1.65563C30.0004 0.741 29.259 0 28.3447 0H28.3443Z" fill="white"/>
</g>
<defs>
<clipPath id="clip0_1_512">
<rect width="30" height="30" fill="white"/>
</clipPath>
</defs>
</svg>
