<svg width="30" height="30" viewBox="0 0 30 30" fill="none" xmlns="http://www.w3.org/2000/svg">
<path d="M0.306297 28.2211L10.1337 18.3937C8.46422 16.3815 7.54564 13.8481 7.54564 11.2272C7.54564 5.03767 12.5833 0 18.7728 0C24.9624 0 30 5.03767 30 11.2272C30 17.4168 24.9624 22.4544 18.7728 22.4544C16.1556 22.4544 13.6222 21.5322 11.6064 19.8554L1.76802 29.6938C1.57847 29.887 1.30871 30 1.02439 30H1.02074C0.743706 30 0.477606 29.8943 0.291702 29.7084C0.102152 29.5188 -0.0035553 29.2418 9.15527e-05 28.9538C0.0037365 28.6695 0.116743 28.3998 0.302649 28.2248L0.306297 28.2211ZM9.6234 11.2236C9.6234 16.2685 13.7279 20.3767 18.7765 20.3767C23.8251 20.3767 27.9295 16.2722 27.9295 11.2236C27.9295 6.17497 23.8251 2.07047 18.7765 2.07047C13.7279 2.07047 9.6234 6.17497 9.6234 11.2236Z" fill="white"/>
</svg>
