<svg width="30" height="30" viewBox="0 0 30 30" fill="none" xmlns="http://www.w3.org/2000/svg">
<g clip-path="url(#clip0_1_507)">
<path d="M15.0311 11.3486C12.9795 11.3486 11.3168 13.0121 11.3168 15.0641C11.3168 17.1161 12.9795 18.7796 15.0311 18.7796C17.0828 18.7796 18.7466 17.1161 18.7466 15.0641C18.7466 13.0121 17.0831 11.3486 15.0311 11.3486Z" fill="white"/>
<path d="M23.7206 8.49075C23.5181 7.97025 23.2774 7.59862 22.887 7.20862C22.4966 6.81862 22.1254 6.57675 21.6049 6.375C21.2115 6.2235 20.6216 6.04125 19.5353 5.99175C18.3596 5.93812 18.0064 5.92687 15.0311 5.92687C12.0559 5.92687 11.7034 5.93775 10.5285 5.99175C9.44177 6.04125 8.85114 6.222 8.45889 6.375C7.93764 6.57675 7.56677 6.81825 7.17677 7.20862C6.78714 7.599 6.54564 7.97025 6.34314 8.49075C6.19164 8.88412 6.00939 9.474 5.95989 10.5604C5.90664 11.736 5.89502 12.0881 5.89502 15.0645C5.89502 18.0409 5.90589 18.3937 5.95989 19.5686C6.00939 20.6554 6.19014 21.246 6.34314 21.6382C6.54489 22.1587 6.78639 22.5296 7.17677 22.9192C7.56714 23.3089 7.93839 23.5504 8.45889 23.7529C8.85152 23.9059 9.44214 24.0866 10.5285 24.1361C11.703 24.1905 12.0548 24.201 15.0311 24.201C18.0075 24.201 18.3604 24.1901 19.5353 24.1361C20.622 24.0866 21.2126 23.9059 21.6049 23.7529C22.1254 23.5504 22.497 23.3085 22.887 22.9192C23.277 22.5296 23.5181 22.1584 23.7206 21.6382C23.8725 21.2456 24.0544 20.655 24.1039 19.5686C24.1579 18.393 24.1688 18.0409 24.1688 15.0645C24.1688 12.0881 24.1579 11.7364 24.1039 10.5604C24.0544 9.47362 23.8736 8.883 23.7206 8.49075ZM15.0315 20.787C11.8706 20.787 9.30864 18.225 9.30864 15.0641C9.30864 11.9032 11.8706 9.34125 15.0315 9.34125C18.1924 9.34125 20.7544 11.9032 20.7544 15.0641C20.7544 18.225 18.1924 20.787 15.0315 20.787ZM20.9805 10.4524C20.2418 10.4524 19.6433 9.85312 19.6436 9.11437C19.6444 8.376 20.2429 7.77787 20.9809 7.7775H20.9813C21.72 7.7775 22.3185 8.37675 22.3181 9.1155C22.3178 9.85425 21.7189 10.4527 20.9801 10.4524H20.9805Z" fill="white"/>
<path d="M29.8939 7.6065C29.8129 5.82225 29.5159 4.85325 29.2643 4.20863C28.9316 3.35438 28.5368 2.74463 27.8955 2.1045C27.2543 1.46438 26.6456 1.0665 25.7914 0.73575C25.1449 0.486 24.1774 0.1875 22.3935 0.106125C20.463 0.0195 19.8855 0 14.9993 0C10.113 0 9.5355 0.018 7.60613 0.106125C5.82188 0.187125 4.85288 0.484125 4.20825 0.73575C3.35325 1.0665 2.74425 1.46438 2.10413 2.1045C1.46475 2.7465 1.068 3.3555 0.735375 4.20975C0.485625 4.85625 0.187125 5.82375 0.10575 7.60763C0.0195 9.53738 0 10.1153 0 15.0015C0 19.8878 0.018 20.466 0.106875 22.3946C0.187875 24.1789 0.484875 25.1479 0.7365 25.7925C1.06725 26.6468 1.464 27.2558 2.10525 27.8959C2.7465 28.536 3.35513 28.932 4.20938 29.2646C4.854 29.5159 5.82338 29.8129 7.60725 29.8943C9.53588 29.9835 10.1152 30.0004 14.9996 30.0004C19.884 30.0004 20.4653 29.9824 22.3939 29.8943C24.1781 29.8133 25.1471 29.5163 25.7918 29.2646C26.646 28.932 27.2558 28.536 27.8959 27.8959C28.536 27.2558 28.932 26.6468 29.2646 25.7925C29.5144 25.1479 29.8129 24.1785 29.8943 22.3946C29.9824 20.4641 30.0004 19.8848 30.0004 15.0004C30.0004 10.116 29.9824 9.53663 29.8943 7.60613L29.8939 7.6065ZM26.1086 19.659C26.0554 20.8455 25.8664 21.6559 25.5911 22.3643C25.3057 23.097 24.9259 23.7191 24.3056 24.3386C23.6854 24.9581 23.064 25.3388 22.3313 25.6241C21.6229 25.8998 20.8125 26.0876 19.626 26.1416C18.4376 26.1964 18.0578 26.2091 15.0311 26.2091C12.0045 26.2091 11.625 26.1956 10.4362 26.1416C9.24975 26.0876 8.4405 25.8994 7.731 25.6241C6.99713 25.3388 6.37687 24.9578 5.75663 24.3386C5.13637 23.7195 4.75575 23.097 4.47113 22.3643C4.1955 21.6559 4.00763 20.8455 3.95363 19.659C3.89888 18.4706 3.88613 18.0907 3.88613 15.0641C3.88613 12.0375 3.89888 11.6576 3.95363 10.4692C4.00763 9.28275 4.19588 8.47237 4.47113 7.764C4.75575 7.03013 5.13637 6.40913 5.75663 5.78963C6.37687 5.1705 6.99825 4.78875 7.731 4.50413C8.439 4.2285 9.24975 4.04063 10.4362 3.98662H10.4366C11.6258 3.93187 12.0064 3.91913 15.0323 3.91913C18.0581 3.91913 18.4384 3.93225 19.6268 3.98662C20.8125 4.03988 21.6225 4.22888 22.332 4.50413C23.064 4.78875 23.6861 5.16937 24.3053 5.78963C24.9248 6.40988 25.3054 7.03125 25.5907 7.764C25.8664 8.472 26.0543 9.28275 26.1082 10.4692C26.1623 11.6576 26.175 12.0375 26.175 15.0641C26.175 18.0907 26.1623 18.4699 26.1082 19.659H26.1086Z" fill="white"/>
</g>
<defs>
<clipPath id="clip0_1_507">
<rect width="30" height="30" fill="white"/>
</clipPath>
</defs>
</svg>
