<svg width="600" height="117" viewBox="0 0 600 117" fill="none" xmlns="http://www.w3.org/2000/svg">
<g clip-path="url(#clip0_90_865)">
<path d="M281.8 70.6319C281.8 70.6319 281.781 70.6413 281.781 70.6506L281.5 70.4451C281.5 70.4451 277.72 74.0514 270.808 74.7708C270.77 74.7708 270.742 74.7708 270.705 74.7801C270.423 74.8082 270.142 74.8268 269.851 74.8455C269.654 74.8549 269.532 74.8642 269.532 74.8642C269.514 74.8642 269.495 74.8642 269.476 74.8642C265.856 75.0324 261.476 74.369 256.421 72.1268C251.703 69.8938 247.37 66.5117 243.59 62.784C243.431 62.6251 243.271 62.4663 243.112 62.3075C242.915 62.1113 242.718 61.9057 242.521 61.7002C242.23 61.3919 241.939 61.0929 241.649 60.7846C241.611 60.7472 241.583 60.7098 241.546 60.6818C239.773 58.7665 238.141 56.8139 236.687 54.9173C236.481 54.665 236.265 54.4035 236.059 54.1512C234.202 51.8622 233.217 50.3113 233.217 50.3113H233.273C232.289 48.8445 231.463 47.4711 230.825 46.2939C230.619 45.9108 230.413 45.5465 230.206 45.1914C230.047 44.9112 229.888 44.6402 229.728 44.3786C229.587 44.145 229.437 43.9021 229.297 43.6779C229.165 43.4724 229.034 43.2762 228.912 43.08C228.528 42.5007 228.143 41.9588 227.768 41.4543C227.768 41.4543 227.768 41.473 227.758 41.4823C226.595 39.9128 225.479 38.6982 224.466 37.7826V37.7546C224.007 37.3341 223.575 36.9698 223.163 36.6708C223.078 36.6147 223.003 36.568 222.919 36.512C221.109 35.1946 219.918 34.8957 219.918 34.8957C229.803 33.8493 234.183 25.6182 234.183 18.2841C234.183 6.09177 223.941 1.77539 213.287 1.77539H183.133L183.143 2.64427H184.268C187.335 2.64427 189.83 5.09209 189.886 8.14719V56.7111C189.811 59.7382 187.326 62.1767 184.259 62.1767H183.143V63.0549H209.845L209.826 62.1767H208.729C205.634 62.1767 203.139 59.7195 203.082 56.6738V5.5966C204.18 5.62463 207.416 5.5312 209.751 5.62463C215.519 5.76477 219.768 9.51124 220.115 17.8824C220.19 19.6482 219.993 21.0496 219.786 22.124C218.22 29.7945 213.418 32.1956 208.691 32.2423H206.009V33.0738C206.487 33.1579 206.947 33.3167 207.397 33.5316C208.7 34.2603 210.754 36.1476 212.865 41.0993C214.206 44.2385 216.016 48.9286 219.383 54.1699V54.1325C223.397 61.0836 230.253 67.8945 239.126 73.2853C239.745 73.6403 240.561 74.0794 241.527 74.5746C241.818 74.7334 242.09 74.9016 242.39 75.0604C242.408 75.0697 242.427 75.0791 242.455 75.0884C242.802 75.266 243.159 75.4435 243.525 75.6116C243.665 75.677 243.806 75.7424 243.947 75.8078C246.254 76.8636 248.73 77.7138 251.337 78.3024C263.267 81.0118 274.888 77.7698 281.922 70.7534L281.791 70.6226L281.8 70.6319Z" fill="#0C004F"/>
<path d="M149.444 62.8674L149.463 61.9892H150.57C153.618 61.9892 156.103 59.5694 156.197 56.5516V34.2036H127.704V56.4769C127.76 59.5227 130.255 61.9798 133.331 61.9798H134.438V62.858H107.755V61.9798H108.88C111.957 61.9798 114.451 59.5227 114.508 56.4769V7.96903C114.433 4.94196 111.947 2.46611 108.88 2.46611H107.774L107.755 1.58789H134.447L134.429 2.46611H133.322C130.264 2.46611 127.779 4.9513 127.694 7.96903V30.5226H156.188V7.96903C156.075 4.96999 153.599 2.46611 150.56 2.46611H149.444V1.58789H176.118V2.46611H174.993C171.916 2.46611 169.421 4.92327 169.365 7.96903V56.4862C169.421 59.532 171.916 61.9892 174.993 61.9892H176.109V62.8674H149.435H149.444Z" fill="#0C004F"/>
<path d="M316.174 32.2326C316.174 51.8992 302.706 64.0916 281.603 64.0916C260.501 64.0916 247.032 51.8992 247.032 32.2326C247.032 12.566 260.501 0.364258 281.603 0.364258C302.706 0.364258 316.174 12.5566 316.174 32.2232V32.2326ZM301.759 32.2326C301.759 14.8456 293.993 4.05467 281.603 4.05467C269.214 4.05467 261.448 14.8456 261.448 32.2326C261.448 49.6195 269.214 60.4105 281.603 60.4105C293.993 60.4105 301.759 49.6195 301.759 32.2326Z" fill="#0C004F"/>
<path d="M391.581 1.58827V2.46649H389.949C387.013 2.46649 384.622 4.79285 384.528 7.69846V52.927C384.528 59.523 385.541 64.0917 385.541 64.0917H384.744L340.344 21.9743V56.7108C340.409 59.6351 342.81 61.9895 345.765 61.9895H347.387V62.8677H320.77V61.9895H322.402C325.365 61.9895 327.766 59.6258 327.823 56.6828V11.2114C327.823 4.70876 326.8 0.280273 326.8 0.280273H327.663L371.988 42.379V7.77321C371.932 4.83022 369.531 2.46649 366.567 2.46649H364.945V1.58827H391.572H391.581Z" fill="#0C004F"/>
<path d="M423.104 62.858H396.411L396.43 61.9798H397.537C400.613 61.9798 403.108 59.5227 403.164 56.4769V7.93166C403.089 4.89525 400.604 2.46611 397.537 2.46611H396.421V1.58789H423.094V2.46611H421.969C418.911 2.46611 416.426 4.89525 416.342 7.91297V56.4862C416.398 59.532 418.893 61.9892 421.969 61.9892H423.085V62.8674L423.104 62.858Z" fill="#0C004F"/>
<path d="M488.334 37.3155L489.187 52.3855C485.248 58.86 477.764 64.092 464.493 64.092C442.912 64.0079 428.843 52.1239 428.843 32.1396C428.843 12.1553 442.424 0.374023 464.736 0.374023C474.097 0.374023 481.6 2.54156 486.589 5.11083L486.758 20.1341H486.027C482.819 8.64241 475.278 4.06443 465.618 4.05509C451.681 4.05509 443.165 14.7526 443.165 31.9434C443.165 49.1342 451.4 60.0559 464.483 60.4016C478.008 60.3829 484.854 54.525 487.593 37.3155H488.324H488.334Z" fill="#0C004F"/>
<path d="M542.348 62.8674H496.85V61.9892H497.976C501.052 61.9892 503.547 59.532 503.603 56.4862V7.96903C503.547 4.92327 501.052 2.46611 497.976 2.46611H496.86V1.58789H523.543L523.524 2.46611H522.417C519.341 2.46611 516.846 4.92327 516.79 7.96903V59.1209H528.326C537.105 59.1209 542.798 53.6834 545.527 45.0039H546.409L542.357 62.8674H542.348Z" fill="#0C004F"/>
<path d="M595.948 62.8682H550.451L550.469 61.99H551.576C554.652 61.99 557.147 59.5328 557.203 56.4871V7.68956C557.007 4.7746 554.568 2.46693 551.586 2.46693H550.479L550.46 1.59804H584.149C587.938 1.56067 593.003 0.691791 594.635 0.00976562V15.3133H593.744V14.2669C593.753 8.99755 590.433 5.5594 585.162 5.33517H570.381V30.8037H582.03C586.344 30.7196 589.495 27.5617 589.476 23.3014V22.5446H590.33V42.7625H589.476V41.9964C589.486 37.7734 586.391 34.6342 582.133 34.5034H570.372V59.1311H581.908C590.686 59.1311 596.379 53.6936 599.109 45.0141H599.99L595.939 62.8776L595.948 62.8682Z" fill="#0C004F"/>
<path d="M292.426 93.7181C292.426 95.4466 292.136 97.175 291.545 98.9034C290.954 100.632 290.11 102.145 288.994 103.453C287.859 104.799 286.499 105.882 284.905 106.695C283.31 107.508 281.462 107.919 279.362 107.919C276.923 107.919 274.944 107.134 273.425 105.565C271.905 103.995 271.146 101.893 271.146 99.2397C271.146 97.2964 271.465 95.4746 272.112 93.7929C272.759 92.1112 273.622 90.6257 274.71 89.355C275.807 88.0844 277.176 87.0567 278.799 86.2719C280.421 85.4871 282.185 85.0947 284.079 85.0947C286.696 85.0947 288.741 85.8889 290.213 87.4771C291.686 89.0654 292.426 91.1489 292.426 93.7275V93.7181ZM287.934 92.8866C287.934 90.8032 287.559 89.2429 286.818 88.2059C286.077 87.1688 285.008 86.6456 283.61 86.6456C282.391 86.6456 281.237 87.0193 280.159 87.7668C279.08 88.5142 278.152 89.7288 277.373 91.4105C276.773 92.6811 276.332 94.1012 276.051 95.6614C275.769 97.2217 275.629 98.6605 275.629 99.9778C275.629 102.071 275.995 103.659 276.717 104.733C277.439 105.808 278.536 106.35 280.009 106.35C281.312 106.35 282.475 105.939 283.488 105.116C284.501 104.294 285.327 103.257 285.955 101.996C286.583 100.763 287.071 99.3519 287.409 97.7636C287.746 96.1753 287.915 94.5403 287.915 92.8773L287.934 92.8866Z" fill="#0C004F"/>
<path d="M306.964 87.8128L303.081 105.938C302.387 109.189 300.943 111.842 298.72 113.907C296.506 115.972 294.227 117 291.873 117C290.579 117 289.632 116.757 289.022 116.262C288.412 115.776 288.112 115.15 288.112 114.412C288.112 113.786 288.3 113.225 288.684 112.739C289.069 112.254 289.622 112.011 290.335 112.011C290.795 112.011 291.188 112.113 291.535 112.319C291.882 112.525 292.183 112.777 292.455 113.085C292.661 113.337 292.895 113.674 293.149 114.094C293.402 114.515 293.627 114.888 293.824 115.187C294.959 115.103 295.925 114.337 296.722 112.908C297.519 111.478 298.213 109.423 298.804 106.76L302.865 87.8035H298.56L299.02 85.8041H303.269L303.587 84.3186C303.944 82.6275 304.497 81.0953 305.266 79.7406C306.026 78.3859 306.898 77.2274 307.864 76.2838C308.821 75.3495 309.899 74.6114 311.119 74.0789C312.329 73.5463 313.492 73.2754 314.608 73.2754C315.902 73.2754 316.849 73.5183 317.459 74.0135C318.069 74.4993 318.378 75.1253 318.378 75.8633C318.378 76.4893 318.2 77.0499 317.834 77.5264C317.468 78.0122 316.906 78.2551 316.146 78.2551C315.686 78.2551 315.292 78.1617 314.955 77.9561C314.617 77.7599 314.317 77.4983 314.045 77.1807C313.754 76.8163 313.51 76.4706 313.342 76.153C313.163 75.8353 312.938 75.471 312.676 75.0786C311.663 75.1253 310.762 75.7886 309.974 77.0686C309.196 78.3579 308.493 80.488 307.874 83.4871L307.377 85.8134H312.938L312.479 87.8128H306.983H306.964Z" fill="#0C004F"/>
<path d="M332.784 107.713C331.387 107.713 330.364 107.433 329.726 106.872C329.079 106.312 328.76 105.499 328.76 104.443C328.76 104.107 328.779 103.789 328.826 103.49C328.873 103.191 328.929 102.846 329.004 102.472L332.437 87.813H328.498L328.957 85.8136H332.981L334.519 79.3857H338.477L336.986 85.8136H343.12L342.66 87.813H336.573L333.731 99.9026C333.6 100.454 333.487 100.996 333.403 101.519C333.319 102.042 333.272 102.481 333.272 102.846C333.272 103.649 333.478 104.238 333.881 104.611C334.285 104.985 335.016 105.172 336.076 105.172C336.461 105.172 336.995 105.125 337.689 105.032C338.383 104.938 338.918 104.817 339.293 104.667L338.918 106.265C337.886 106.657 336.92 107.003 336.01 107.283C335.101 107.573 334.031 107.713 332.793 107.713H332.784Z" fill="#0C004F"/>
<path d="M368.021 104.705L367.692 106.106C366.37 106.63 365.338 107.013 364.607 107.256C363.875 107.499 363.125 107.62 362.384 107.62C361.212 107.62 360.321 107.312 359.739 106.704C359.158 106.097 358.857 105.35 358.857 104.453C358.857 104.126 358.886 103.771 358.942 103.388C358.998 102.995 359.092 102.537 359.233 102.014L361.39 93.8206C361.549 93.1947 361.681 92.6154 361.774 92.1109C361.868 91.597 361.915 91.186 361.915 90.8777C361.915 89.8967 361.681 89.1212 361.212 88.5513C360.743 87.9814 360.049 87.6918 359.139 87.6918C358.229 87.6918 357.197 87.9907 356.109 88.5887C355.021 89.1866 353.99 90.0368 353.014 91.1206L349.272 107.246H345.155L351.711 78.9843C351.786 78.6479 351.842 78.3583 351.898 78.1247C351.955 77.8912 351.973 77.6389 351.973 77.3773C351.973 76.8541 351.889 76.443 351.711 76.1627C351.532 75.8731 351.279 75.6582 350.96 75.5181C350.679 75.3873 350.294 75.2939 349.807 75.2565C349.319 75.2098 348.831 75.1631 348.344 75.107L348.653 73.771L356.85 73.2852L357.075 73.6122L353.558 88.7849H353.643C355.153 87.5703 356.494 86.6547 357.676 86.0287C358.857 85.4028 360.208 85.0945 361.709 85.0945C363.115 85.0945 364.213 85.4962 365.001 86.3184C365.789 87.1312 366.182 88.1963 366.182 89.5136C366.182 89.7752 366.145 90.2423 366.06 90.9244C365.976 91.5971 365.854 92.2604 365.676 92.9237L363.819 99.9776C363.706 100.445 363.575 100.987 363.444 101.594C363.312 102.201 363.247 102.678 363.247 103.014C363.247 103.845 363.434 104.415 363.8 104.714C364.166 105.013 364.766 105.163 365.61 105.163C365.892 105.163 366.286 105.116 366.811 105.023C367.336 104.929 367.73 104.826 368.011 104.724L368.021 104.705Z" fill="#0C004F"/>
<path d="M391.881 89.6631C391.881 91.214 391.394 92.55 390.418 93.6618C389.443 94.7736 388.017 95.6612 386.151 96.3245C384.781 96.8197 383.403 97.2214 382.005 97.5297C380.608 97.838 379.07 98.0903 377.381 98.2958C377.381 100.604 377.813 102.379 378.666 103.593C379.529 104.817 380.786 105.424 382.446 105.424C383.919 105.424 385.213 105.06 386.338 104.322C387.464 103.593 388.571 102.5 389.658 101.052L390.915 101.977C389.743 103.761 388.27 105.191 386.507 106.256C384.744 107.321 382.915 107.854 381.02 107.854C378.422 107.854 376.434 107.125 375.065 105.677C373.686 104.229 373.001 102.173 373.001 99.5011C373.001 97.6512 373.292 95.8947 373.874 94.2224C374.455 92.5407 375.299 91.0084 376.415 89.6164C377.503 88.2523 378.835 87.1592 380.411 86.3183C381.987 85.4868 383.731 85.0664 385.644 85.0664C387.764 85.0664 389.33 85.4962 390.353 86.3557C391.375 87.2153 391.881 88.3084 391.881 89.6444V89.6631ZM387.83 89.1212C387.83 88.5513 387.745 88.1028 387.586 87.7758C387.426 87.4488 387.22 87.2059 386.967 87.0471C386.704 86.8696 386.423 86.7575 386.132 86.7201C385.841 86.6827 385.541 86.6547 385.232 86.6547C383.468 86.6547 381.846 87.617 380.355 89.5416C378.863 91.4662 377.916 93.8673 377.522 96.7449C378.554 96.5954 379.707 96.3899 381.002 96.119C382.296 95.848 383.365 95.493 384.219 95.0539C385.438 94.4279 386.348 93.6244 386.939 92.6341C387.529 91.6437 387.83 90.4759 387.83 89.1212Z" fill="#0C004F"/>
<path d="M432.886 107.255V106.76H433.524C435.259 106.76 436.675 105.387 436.722 103.668V90.9523H420.506V103.63C420.543 105.368 421.959 106.76 423.713 106.76H424.342V107.255H409.157V106.76H409.795C411.549 106.76 412.965 105.359 413.003 103.63V76.0225C412.956 74.2941 411.549 72.8926 409.804 72.8926H409.167V72.3975H424.351V72.8926H423.713C421.969 72.8926 420.562 74.3034 420.506 76.0225V88.8595H436.722V76.0225C436.656 74.3127 435.249 72.8926 433.524 72.8926H432.895V72.3975H448.08V72.8926H447.442C445.688 72.8926 444.272 74.2941 444.235 76.0225V103.63C444.272 105.368 445.688 106.76 447.442 106.76H448.071V107.255H432.886Z" fill="#0C004F"/>
<path d="M493.314 89.8219C493.314 101.015 485.652 107.956 473.647 107.956C461.642 107.956 453.97 101.015 453.97 89.8219C453.97 78.6292 461.632 71.6875 473.647 71.6875C485.661 71.6875 493.314 78.6292 493.314 89.8219ZM485.108 89.8219C485.108 79.9278 480.69 73.7896 473.637 73.7896C466.584 73.7896 462.167 79.9372 462.167 89.8219C462.167 99.7066 466.584 105.854 473.637 105.854C480.69 105.854 485.108 99.7159 485.108 89.8219Z" fill="#0C004F"/>
<path d="M516.227 72.379C522.286 72.379 528.12 74.8362 528.12 81.7779C528.12 85.9728 525.606 90.6816 519.932 91.2422C522.042 91.9335 523.927 93.9142 525.034 95.652C525.184 95.8949 528.185 100.632 530.07 102.967C532.228 105.705 533.653 106.705 536.261 106.742V107.237H531.393C525.925 107.237 521.939 106.06 519.65 102.07C518.431 99.959 516.18 95.026 515.486 93.5405C514.52 91.4664 513.395 90.4013 512.1 90.1864V89.7099H513.629C516.321 89.6819 519.05 88.3179 519.941 83.9548C520.054 83.3475 520.166 82.544 520.129 81.5443C519.932 76.7795 517.512 74.6493 514.229 74.5653C512.907 74.5092 511.069 74.5653 510.44 74.5466V103.603C510.468 105.34 511.894 106.733 513.657 106.733H514.276V107.228H499.082V106.733H499.72C501.465 106.733 502.881 105.35 502.918 103.621V75.9854C502.881 74.2476 501.465 72.8555 499.72 72.8555H499.082V72.3604H516.236L516.227 72.379Z" fill="#0C004F"/>
<path d="M558.264 89.373C561.237 91.2976 562.963 93.9136 562.756 97.632C562.456 104.116 557.542 107.946 549.541 107.946C545.058 107.946 540.856 106.797 539.028 104.919C538.202 102.836 538.906 98.6317 540.209 96.4642H540.65C540.247 101.659 544.083 105.938 550.076 105.844C554.428 105.77 556.988 103.369 556.988 100.239C556.988 98.2206 555.675 96.8753 552.993 95.0908L544.28 89.3356C540.838 87.0653 539.131 84.0289 539.496 80.3946C539.919 75.2373 543.717 71.6777 550.02 71.6777C551.623 71.6777 554.54 71.902 556.829 72.1916H559.971L559.314 79.5163H558.836C558.836 76.0595 556.013 73.7799 551.783 73.7799C547.844 73.7799 545.358 75.8913 545.236 78.5727C545.115 80.5347 546.624 81.852 548.716 83.2068L558.254 89.373H558.264Z" fill="#0C004F"/>
<path d="M595.151 107.255H569.256V106.76H569.893C571.647 106.76 573.063 105.359 573.101 103.63V75.8636C572.988 74.2006 571.6 72.8926 569.903 72.8926H569.274V72.3975H588.436C590.593 72.3788 593.472 71.8836 594.401 71.4912V80.1987H593.894V79.6101C593.894 76.6111 592.009 74.6584 589.008 74.5276H580.595V89.0183H587.226C589.683 88.9716 591.474 87.1778 591.465 84.7487V84.3189H591.953V95.8199H591.465V95.3808C591.465 92.9797 589.711 91.1859 587.291 91.1111H580.595V105.125H587.16C592.15 105.125 595.395 102.033 596.952 97.0905H597.449L595.142 107.255H595.151Z" fill="#0C004F"/>
<path fill-rule="evenodd" clip-rule="evenodd" d="M57.2679 16.303C57.5399 16.303 57.7088 16.303 57.7275 16.303C57.8682 16.2656 61.4603 8.33355 71.0738 4.97948C73.2497 4.39088 75.5944 4.06388 78.1174 4.06388C88.528 4.06388 96.6596 8.64186 100.102 20.1429H100.889L100.702 5.11962C95.3371 2.541 87.2431 0.382812 77.1607 0.382812C60.5224 0.382812 48.3955 6.22207 42.4961 16.3123H57.2492L57.2679 16.303Z" fill="#0C004F"/>
<path fill-rule="evenodd" clip-rule="evenodd" d="M102.587 37.3154H101.799C98.8542 54.5249 91.4635 60.3922 76.898 60.4015C73.6904 60.3174 70.7736 59.6821 68.1568 58.561C62.7452 55.8702 58.8248 50.2272 58.8248 50.2272C58.8248 50.2272 58.7122 50.2272 58.5059 50.2272V50.2178H43.9498C50.3181 59.0748 61.9292 64.0359 76.9074 64.0919C91.2009 64.0919 99.2668 58.8599 103.506 52.3854L102.587 37.3154Z" fill="#0C004F"/>
<path d="M26.2798 16.5924L24.5166 24.2628H23.1473C23.1379 23.7957 23.0722 23.2071 22.9597 22.4877C22.8471 21.7683 22.6877 21.1236 22.472 20.5537C22.2469 19.9464 21.9561 19.4139 21.5903 18.9748C21.2246 18.5357 20.7931 18.2741 20.296 18.1993C19.9021 18.1433 19.3957 18.1059 18.786 18.0779C18.1764 18.0498 17.6043 18.0405 17.0791 18.0405H15.8317L10.5795 40.865C10.5513 40.9677 10.5326 41.0892 10.5232 41.2107C10.5138 41.3414 10.5044 41.4629 10.5044 41.575C10.5044 41.8927 10.5607 42.1543 10.6826 42.3598C10.8046 42.5654 11.0296 42.7522 11.3579 42.911C11.6205 43.0138 12.0988 43.1446 12.7929 43.3034C13.4869 43.4623 14.0497 43.537 14.4905 43.5557L14.1716 44.873H0.872242L1.19113 43.5557C1.58504 43.5277 2.16654 43.481 2.91685 43.3969C3.66717 43.3221 4.22053 43.2194 4.56755 43.0979C5.09277 42.9017 5.49607 42.6214 5.75868 42.2757C6.02129 41.93 6.20887 41.519 6.31203 41.0425L11.6018 18.0405H10.5513C10.1574 18.0405 9.66032 18.0498 9.06007 18.0685C8.45981 18.0872 7.85018 18.1339 7.23117 18.1993C6.79036 18.2554 6.2839 18.517 5.7024 18.9841C5.12091 19.4512 4.53941 20.0118 3.95792 20.6471C3.40456 21.2731 2.8981 21.9084 2.44791 22.5531C1.99772 23.1977 1.6507 23.7676 1.39746 24.2535H0L1.76324 16.583H26.2798V16.5924Z" fill="#0C004F"/>
<path d="M46.182 42.5657L45.8818 43.8457C44.6907 44.3222 43.7622 44.6772 43.1057 44.8921C42.4398 45.107 41.7739 45.2191 41.0986 45.2191C40.0388 45.2191 39.2415 44.9388 38.7163 44.3876C38.1911 43.8363 37.9191 43.1543 37.9191 42.3415C37.9191 42.0519 37.9472 41.7249 37.9941 41.3698C38.0504 41.0148 38.1348 40.6037 38.2568 40.1272L40.1982 32.681C40.3389 32.1111 40.4608 31.5879 40.5452 31.1208C40.6296 30.6536 40.6765 30.2799 40.6765 29.9996C40.6765 29.1121 40.4702 28.402 40.0481 27.8882C39.6261 27.365 39.0071 27.1127 38.1817 27.1127C37.3564 27.1127 36.4372 27.3837 35.4524 27.9349C34.477 28.4768 33.5485 29.2429 32.6669 30.2332L29.2998 44.8734H25.5952L31.5039 19.2087C31.5696 18.9004 31.6258 18.6481 31.6727 18.4332C31.7196 18.2184 31.7384 17.9941 31.7384 17.7512C31.7384 17.2747 31.654 16.901 31.5039 16.6488C31.3445 16.3872 31.1194 16.191 30.8286 16.0602C30.5754 15.9387 30.2284 15.864 29.7969 15.8173C29.3561 15.7799 28.9153 15.7332 28.4839 15.6771L28.7652 14.4625L36.1465 14.0234L36.3434 14.3224L33.1734 28.1031H33.2484C34.6083 27.0006 35.8182 26.1691 36.8874 25.5992C37.9566 25.0293 39.1665 24.749 40.5265 24.749C41.7926 24.749 42.7774 25.1227 43.4902 25.8514C44.203 26.5895 44.5594 27.5612 44.5594 28.757C44.5594 29 44.5219 29.4204 44.4469 30.037C44.3718 30.6443 44.2593 31.2516 44.0998 31.8495L42.4304 38.2493C42.3272 38.6791 42.2147 39.1649 42.0927 39.7162C41.9708 40.2674 41.9145 40.6972 41.9145 41.0055C41.9145 41.7622 42.0834 42.2761 42.4116 42.547C42.7399 42.818 43.2839 42.9581 44.0342 42.9581C44.2874 42.9581 44.6438 42.9114 45.1128 42.8273C45.5817 42.7432 45.9475 42.6498 46.1914 42.5564L46.182 42.5657Z" fill="#0C004F"/>
<path d="M67.6692 28.8977C67.6692 30.3084 67.2284 31.523 66.3468 32.532C65.4652 33.541 64.1896 34.3445 62.5108 34.9518C61.2821 35.4096 60.0347 35.774 58.778 36.0542C57.5212 36.3345 56.1331 36.5681 54.6137 36.755C54.6137 38.8571 54.9982 40.4547 55.7767 41.5665C56.5458 42.6783 57.6806 43.2295 59.1813 43.2295C60.5037 43.2295 61.6667 42.9025 62.6796 42.2298C63.6925 41.5665 64.6867 40.5762 65.6621 39.2588L66.797 40.0997C65.7371 41.716 64.4147 43.0146 62.8297 43.9863C61.2446 44.9579 59.5939 45.4438 57.887 45.4438C55.5422 45.4438 53.7602 44.7898 52.5222 43.4724C51.2842 42.1551 50.6652 40.2865 50.6652 37.8667C50.6652 36.1944 50.9278 34.5874 51.453 33.0645C51.9782 31.5417 52.7379 30.1496 53.7415 28.8883C54.7169 27.6551 55.9174 26.6554 57.343 25.8986C58.7686 25.1418 60.3349 24.7588 62.0512 24.7588C63.9551 24.7588 65.3714 25.1512 66.2905 25.9266C67.2096 26.7021 67.6692 27.7018 67.6692 28.9163V28.8977ZM64.0208 28.4025C64.0208 27.8886 63.9458 27.4775 63.8051 27.1786C63.6644 26.8796 63.4768 26.6554 63.2517 26.5152C63.0172 26.3564 62.764 26.2536 62.5014 26.2163C62.2388 26.1789 61.9668 26.1602 61.6854 26.1602C60.1004 26.1602 58.6373 27.0384 57.2961 28.7855C55.9549 30.5326 55.1014 32.7189 54.745 35.3255C55.6735 35.1947 56.7146 35.0078 57.8776 34.7556C59.0406 34.5127 60.0066 34.1857 60.7757 33.7933C61.873 33.2234 62.689 32.4946 63.2236 31.5977C63.7582 30.7008 64.0302 29.6357 64.0302 28.4025H64.0208Z" fill="#0C004F"/>
</g>
<defs>
<clipPath id="clip0_90_865">
<rect width="600" height="117" fill="white"/>
</clipPath>
</defs>
</svg>
