<svg width="50" height="46" viewBox="0 0 50 46" fill="none" xmlns="http://www.w3.org/2000/svg">
<g clip-path="url(#clip0_67_462)">
<path d="M29.3601 10.8631C28.6073 10.5263 27.6244 10.3368 26.6416 10.3368C24.9686 10.3368 23.4003 10.9894 22.271 12.1894C21.2045 13.3052 20.5772 14.8631 20.5772 16.4421C20.5772 18.8631 22.2083 20.1263 23.8394 20.1263C24.8641 20.1263 25.7633 19.8105 26.5161 19.1789L26.5998 19.1158L26.7043 19.2421C26.7043 19.2421 26.7671 19.3052 26.788 19.3263C27.2271 19.8315 27.8963 20.1052 28.6491 20.1052C31.0331 20.1052 33.4379 18 33.4379 13.9789C33.4379 11.9158 32.7269 10.0421 31.4095 8.73681C30.1129 7.43155 28.2518 6.71576 26.1815 6.71576C23.6512 6.71576 21.3509 7.70523 19.6989 9.53681C18.1514 11.2631 17.3149 13.5789 17.3149 16.0631C17.3149 20.5684 20.4726 23.8315 24.8432 23.8315C26.537 23.8315 27.8545 23.5368 29.151 22.8421C29.5692 22.6315 29.7365 22.1052 29.5065 21.6842C29.4019 21.4737 29.2346 21.3263 29.0046 21.2631C28.7955 21.2 28.5655 21.221 28.3563 21.3263C27.3108 21.8737 26.2652 22.1052 24.8432 22.1052C21.4346 22.1052 19.0297 19.621 19.0297 16.0631C19.0297 14.021 19.7198 12.1052 20.9745 10.6947C22.2919 9.24207 24.1322 8.44208 26.1815 8.44208C29.4856 8.44208 31.7231 10.6737 31.7231 13.9789C31.7231 16.8631 30.1757 18.3789 28.67 18.3789C28.4191 18.3789 28.21 18.2947 28.0845 18.1473C27.9381 18 27.8754 17.7684 27.8545 17.4315L29.8829 11.9579C30.0502 11.5368 29.8202 11.0315 29.4019 10.8421L29.3601 10.8631ZM23.8394 18.4C23.0657 18.4 22.2919 17.7894 22.2919 16.4421C22.2919 15.3052 22.7311 14.1894 23.5048 13.3894C24.3204 12.5263 25.4496 12.0631 26.6416 12.0631C27.0389 12.0631 27.4362 12.1052 27.8126 12.1684H27.9381L26.1606 16.9684C25.5542 17.9368 24.8223 18.4 23.8394 18.4Z" fill="white"/>
<path d="M49.9791 17.3684C49.9791 17.3684 49.9791 17.3053 49.9791 17.2632C49.9791 17.2 49.9581 17.1368 49.9163 17.0947C49.9163 17.0737 49.8954 17.0526 49.8745 17.0105C49.8745 17.0105 49.8745 17.0105 49.8745 16.9895C49.8327 16.9263 49.7699 16.8632 49.7072 16.8C49.7072 16.8 49.6863 16.7579 49.6654 16.7579L40.6106 10.7789L39.8996 12.3579L47.5951 17.4737L40.5897 22.1684V16.6316V2.12632C40.5897 0.968421 39.6486 0 38.4776 0H11.5432C10.3931 0 9.43116 0.947368 9.43116 2.12632V22.1474L2.40481 17.4947L10.1422 12.3579L9.43116 10.7789L0.376374 16.7579C0.376374 16.7579 0.355462 16.8 0.33455 16.8C0.271815 16.8632 0.20908 16.9263 0.167256 16.9895C0.167256 16.9895 0.125433 17.0316 0.104521 17.0737C0.0836093 17.1368 0.0626975 17.2 0.0417858 17.2632C0.0417858 17.2842 0.0417858 17.3053 0.0417858 17.3263C0.0417858 17.3684 0.020874 17.3895 0.020874 17.4316V45.1158C0.020874 45.1158 0.020874 45.1789 0.0417858 45.221C0.0417858 45.2632 0.0417858 45.2842 0.0626975 45.3263C0.0626975 45.3895 0.104521 45.4737 0.146345 45.5368C0.146345 45.5368 0.146345 45.5789 0.167256 45.5789C0.167256 45.5789 0.188168 45.5789 0.20908 45.621C0.271815 45.7053 0.33455 45.7684 0.418197 45.8316C0.439109 45.8316 0.480933 45.8737 0.501844 45.8947C0.606403 45.9368 0.710962 45.9579 0.815521 45.9789C0.815521 45.9789 0.857344 45.9789 0.878256 45.9789H49.1635C49.1635 45.9789 49.1844 45.9789 49.2053 45.9789C49.3099 45.9789 49.4144 45.9368 49.519 45.8947C49.5608 45.8947 49.5817 45.8526 49.6236 45.8316C49.7072 45.7895 49.7699 45.7263 49.8118 45.6632C49.8118 45.6632 49.8536 45.6421 49.8536 45.621C49.8536 45.621 49.8536 45.5789 49.8745 45.5579C49.8954 45.5158 49.9163 45.4526 49.9372 45.4105C49.9581 45.3684 49.9581 45.3053 49.9791 45.2421C49.9791 45.221 49.9791 45.2 49.9791 45.1579V17.4737C49.9791 17.4737 49.9791 17.4105 49.9791 17.3895V17.3684ZM11.1041 2.12632C11.1041 1.89474 11.2923 1.68421 11.5432 1.68421H38.4358C38.6658 1.68421 38.8749 1.87368 38.8749 2.12632V23.2632L27.7917 30.6105L25.0313 32.4632L22.3337 30.6737C22.3337 30.6737 22.2501 30.6105 22.2082 30.5895L11.1459 23.2632V2.12632H11.1041ZM48.3061 44.3158H1.6729V19.0316L20.2425 31.3263L21.7691 32.3368L24.5504 34.1684C24.6967 34.2526 24.8431 34.3158 25.0104 34.3158C25.1777 34.3158 25.3241 34.2737 25.4705 34.1684L28.2517 32.3368L29.7783 31.3263L48.327 19.0526V44.3368L48.3061 44.3158Z" fill="white"/>
</g>
<defs>
<clipPath id="clip0_67_462">
<rect width="50" height="46" fill="white"/>
</clipPath>
</defs>
</svg>
